<svg width="171" height="50" viewBox="0 0 171 50" fill="none" xmlns="http://www.w3.org/2000/svg">
<g filter="url(#filter0_d_0_1)">
<rect x="2" y="2" width="163" height="42" rx="10" fill="white"/>
</g>
<path d="M59.816 14.08V17.824H53.048V20.8H58.04V24.376H53.048V31H48.344V14.08H59.816ZM66.4051 14.08V23.896C66.4051 24.808 66.6131 25.512 67.0291 26.008C67.4611 26.504 68.1091 26.752 68.9731 26.752C69.8371 26.752 70.4851 26.504 70.9171 26.008C71.3651 25.496 71.5891 24.792 71.5891 23.896V14.08H76.2931V23.896C76.2931 25.448 75.9651 26.776 75.3091 27.88C74.6531 28.968 73.7571 29.792 72.6211 30.352C71.5011 30.896 70.2531 31.168 68.8771 31.168C67.5011 31.168 66.2691 30.896 65.1811 30.352C64.1091 29.792 63.2611 28.968 62.6371 27.88C62.0291 26.792 61.7251 25.464 61.7251 23.896V14.08H66.4051ZM94.5551 31H89.8511L83.5871 21.544V31H78.8831V14.08H83.5871L89.8511 23.656V14.08H94.5551V31ZM98.3866 14.08H103.139L100.379 20.848H97.2346L98.3866 14.08ZM111.916 31.168C109.948 31.168 108.332 30.704 107.068 29.776C105.804 28.832 105.124 27.488 105.028 25.744H110.044C110.092 26.336 110.268 26.768 110.572 27.04C110.876 27.312 111.268 27.448 111.748 27.448C112.18 27.448 112.532 27.344 112.804 27.136C113.092 26.912 113.236 26.608 113.236 26.224C113.236 25.728 113.004 25.344 112.54 25.072C112.076 24.8 111.324 24.496 110.284 24.16C109.18 23.792 108.284 23.44 107.596 23.104C106.924 22.752 106.332 22.248 105.82 21.592C105.324 20.92 105.076 20.048 105.076 18.976C105.076 17.888 105.348 16.96 105.892 16.192C106.436 15.408 107.188 14.816 108.148 14.416C109.108 14.016 110.196 13.816 111.412 13.816C113.38 13.816 114.948 14.28 116.116 15.208C117.3 16.12 117.932 17.408 118.012 19.072H112.9C112.884 18.56 112.724 18.176 112.42 17.92C112.132 17.664 111.756 17.536 111.292 17.536C110.94 17.536 110.652 17.64 110.428 17.848C110.204 18.056 110.092 18.352 110.092 18.736C110.092 19.056 110.212 19.336 110.452 19.576C110.708 19.8 111.02 20 111.388 20.176C111.756 20.336 112.3 20.544 113.02 20.8C114.092 21.168 114.972 21.536 115.66 21.904C116.364 22.256 116.964 22.76 117.46 23.416C117.972 24.056 118.228 24.872 118.228 25.864C118.228 26.872 117.972 27.776 117.46 28.576C116.964 29.376 116.236 30.008 115.276 30.472C114.332 30.936 113.212 31.168 111.916 31.168Z" fill="url(#paint0_linear_0_1)"/>
<defs>
<filter id="filter0_d_0_1" x="0" y="0" width="171" height="50" filterUnits="userSpaceOnUse" color-interpolation-filters="sRGB">
<feFlood flood-opacity="0" result="BackgroundImageFix"/>
<feColorMatrix in="SourceAlpha" type="matrix" values="0 0 0 0 0 0 0 0 0 0 0 0 0 0 0 0 0 0 127 0" result="hardAlpha"/>
<feOffset dx="2" dy="2"/>
<feGaussianBlur stdDeviation="2"/>
<feComposite in2="hardAlpha" operator="out"/>
<feColorMatrix type="matrix" values="0 0 0 0 0 0 0 0 0 0 0 0 0 0 0 0 0 0 0.1 0"/>
<feBlend mode="normal" in2="BackgroundImageFix" result="effect1_dropShadow_0_1"/>
<feBlend mode="normal" in="SourceGraphic" in2="effect1_dropShadow_0_1" result="shape"/>
</filter>
<linearGradient id="paint0_linear_0_1" x1="83.5" y1="11.8791" x2="83.5" y2="64.6416" gradientUnits="userSpaceOnUse">
<stop stop-color="#B3124C" stop-opacity="0.67"/>
<stop offset="1" stop-color="white" stop-opacity="0.18"/>
</linearGradient>
</defs>
</svg>
